<?xml version="1.0" encoding="UTF-8" standalone="no"?>
<!DOCTYPE svg PUBLIC "-//W3C//DTD SVG 1.1//EN"
 "http://www.w3.org/Graphics/SVG/1.1/DTD/svg11.dtd">
<!-- Generated by graphviz version 11.0.0 (20240428.1522)
 -->
<!-- Pages: 1 -->
<svg width="583pt" height="99pt"
 viewBox="0.00 0.00 582.50 99.00" xmlns="http://www.w3.org/2000/svg" xmlns:xlink="http://www.w3.org/1999/xlink">
<g id="graph0" class="graph" transform="scale(1 1) rotate(0) translate(4 95)">
<polygon fill="white" stroke="none" points="-4,4 -4,-95 578.5,-95 578.5,4 -4,4"/>
<!-- John Doe -->
<g id="node1" class="node">
<title>John Doe</title>
<polygon fill="none" stroke="black" points="0,-0.5 0,-90.5 176,-90.5 176,-0.5 0,-0.5"/>
<text text-anchor="middle" x="78.12" y="-73.2" font-family="Times,serif" font-size="14.00">1</text>
<polyline fill="none" stroke="black" points="0,-66 156.25,-66"/>
<text text-anchor="middle" x="78.12" y="-48.7" font-family="Times,serif" font-size="14.00">John Doe</text>
<polyline fill="none" stroke="black" points="0,-41.5 156.25,-41.5"/>
<text text-anchor="middle" x="78.12" y="-24.2" font-family="Times,serif" font-size="14.00">Explorer&#39;s Delight: $3500</text>
<text text-anchor="middle" x="78.12" y="-7.7" font-family="Times,serif" font-size="14.00">Budget Explore: $5000</text>
<polyline fill="none" stroke="black" points="156.25,-0.5 156.25,-90.5"/>
<text text-anchor="middle" x="166.12" y="-40.45" font-family="Times,serif" font-size="14.00"> </text>
</g>
<!-- Jane Smith -->
<g id="node2" class="node">
<title>Jane Smith</title>
<polygon fill="none" stroke="black" points="212,-8.75 212,-82.25 376,-82.25 376,-8.75 212,-8.75"/>
<text text-anchor="middle" x="284.12" y="-64.95" font-family="Times,serif" font-size="14.00">2</text>
<polyline fill="none" stroke="black" points="212,-57.75 356.25,-57.75"/>
<text text-anchor="middle" x="284.12" y="-40.45" font-family="Times,serif" font-size="14.00">Jane Smith</text>
<polyline fill="none" stroke="black" points="212,-33.25 356.25,-33.25"/>
<text text-anchor="middle" x="284.12" y="-15.95" font-family="Times,serif" font-size="14.00">Luxury Escapes: $5500</text>
<polyline fill="none" stroke="black" points="356.25,-8.75 356.25,-82.25"/>
<text text-anchor="middle" x="366.12" y="-40.45" font-family="Times,serif" font-size="14.00"> </text>
</g>
<!-- John Doe&#45;&gt;Jane Smith -->
<g id="edge1" class="edge">
<title>John Doe&#45;&gt;Jane Smith</title>
<path fill="none" stroke="black" d="M176.4,-45.5C184.25,-45.5 192.21,-45.5 200.11,-45.5"/>
<polygon fill="black" stroke="black" points="200.08,-49 210.08,-45.5 200.08,-42 200.08,-49"/>
</g>
<!-- Alice Johnson -->
<g id="node3" class="node">
<title>Alice Johnson</title>
<polygon fill="none" stroke="black" points="412,-8.75 412,-82.25 574.5,-82.25 574.5,-8.75 412,-8.75"/>
<text text-anchor="middle" x="483.38" y="-64.95" font-family="Times,serif" font-size="14.00">3</text>
<polyline fill="none" stroke="black" points="412,-57.75 554.75,-57.75"/>
<text text-anchor="middle" x="483.38" y="-40.45" font-family="Times,serif" font-size="14.00">Alice Johnson</text>
<polyline fill="none" stroke="black" points="412,-33.25 554.75,-33.25"/>
<text text-anchor="middle" x="483.38" y="-15.95" font-family="Times,serif" font-size="14.00">Budget Explore: $2000</text>
<polyline fill="none" stroke="black" points="554.75,-8.75 554.75,-82.25"/>
<text text-anchor="middle" x="564.62" y="-40.45" font-family="Times,serif" font-size="14.00"> </text>
</g>
<!-- Jane Smith&#45;&gt;Alice Johnson -->
<g id="edge2" class="edge">
<title>Jane Smith&#45;&gt;Alice Johnson</title>
<path fill="none" stroke="black" d="M376.37,-45.5C384.3,-45.5 392.39,-45.5 400.42,-45.5"/>
<polygon fill="black" stroke="black" points="400.19,-49 410.19,-45.5 400.19,-42 400.19,-49"/>
</g>
</g>
</svg>
