<?xml version="1.0" encoding="UTF-8" standalone="no"?>
<!DOCTYPE svg PUBLIC "-//W3C//DTD SVG 1.1//EN"
 "http://www.w3.org/Graphics/SVG/1.1/DTD/svg11.dtd">
<!-- Generated by graphviz version 11.0.0 (20240428.1522)
 -->
<!-- Pages: 1 -->
<svg width="1977pt" height="99pt"
 viewBox="0.00 0.00 1976.50 99.00" xmlns="http://www.w3.org/2000/svg" xmlns:xlink="http://www.w3.org/1999/xlink">
<g id="graph0" class="graph" transform="scale(1 1) rotate(0) translate(4 95)">
<polygon fill="white" stroke="none" points="-4,4 -4,-95 1972.5,-95 1972.5,4 -4,4"/>
<!-- John Doe -->
<g id="node1" class="node">
<title>John Doe</title>
<polygon fill="none" stroke="black" points="0,-0.5 0,-90.5 164,-90.5 164,-0.5 0,-0.5"/>
<text text-anchor="middle" x="72.12" y="-73.2" font-family="Times,serif" font-size="14.00">1</text>
<polyline fill="none" stroke="black" points="0,-66 144.25,-66"/>
<text text-anchor="middle" x="72.12" y="-48.7" font-family="Times,serif" font-size="14.00">John Doe</text>
<polyline fill="none" stroke="black" points="0,-41.5 144.25,-41.5"/>
<text text-anchor="middle" x="72.12" y="-24.2" font-family="Times,serif" font-size="14.00">Luxury Escapes: $5500</text>
<text text-anchor="middle" x="72.12" y="-7.7" font-family="Times,serif" font-size="14.00">Budget Explore: $2000</text>
<polyline fill="none" stroke="black" points="144.25,-0.5 144.25,-90.5"/>
<text text-anchor="middle" x="154.12" y="-40.45" font-family="Times,serif" font-size="14.00"> </text>
</g>
<!-- Jane Smith -->
<g id="node2" class="node">
<title>Jane Smith</title>
<polygon fill="none" stroke="black" points="200,-8.75 200,-82.25 364,-82.25 364,-8.75 200,-8.75"/>
<text text-anchor="middle" x="272.12" y="-64.95" font-family="Times,serif" font-size="14.00">2</text>
<polyline fill="none" stroke="black" points="200,-57.75 344.25,-57.75"/>
<text text-anchor="middle" x="272.12" y="-40.45" font-family="Times,serif" font-size="14.00">Jane Smith</text>
<polyline fill="none" stroke="black" points="200,-33.25 344.25,-33.25"/>
<text text-anchor="middle" x="272.12" y="-15.95" font-family="Times,serif" font-size="14.00">Luxury Escapes: $5500</text>
<polyline fill="none" stroke="black" points="344.25,-8.75 344.25,-82.25"/>
<text text-anchor="middle" x="354.12" y="-40.45" font-family="Times,serif" font-size="14.00"> </text>
</g>
<!-- John Doe&#45;&gt;Jane Smith -->
<g id="edge1" class="edge">
<title>John Doe&#45;&gt;Jane Smith</title>
<path fill="none" stroke="black" d="M164.39,-45.5C172.29,-45.5 180.35,-45.5 188.35,-45.5"/>
<polygon fill="black" stroke="black" points="188.09,-49 198.09,-45.5 188.09,-42 188.09,-49"/>
</g>
<!-- Alice Johnson -->
<g id="node3" class="node">
<title>Alice Johnson</title>
<polygon fill="none" stroke="black" points="400,-8.75 400,-82.25 562.5,-82.25 562.5,-8.75 400,-8.75"/>
<text text-anchor="middle" x="471.38" y="-64.95" font-family="Times,serif" font-size="14.00">3</text>
<polyline fill="none" stroke="black" points="400,-57.75 542.75,-57.75"/>
<text text-anchor="middle" x="471.38" y="-40.45" font-family="Times,serif" font-size="14.00">Alice Johnson</text>
<polyline fill="none" stroke="black" points="400,-33.25 542.75,-33.25"/>
<text text-anchor="middle" x="471.38" y="-15.95" font-family="Times,serif" font-size="14.00">Budget Explore: $2000</text>
<polyline fill="none" stroke="black" points="542.75,-8.75 542.75,-82.25"/>
<text text-anchor="middle" x="552.62" y="-40.45" font-family="Times,serif" font-size="14.00"> </text>
</g>
<!-- Jane Smith&#45;&gt;Alice Johnson -->
<g id="edge2" class="edge">
<title>Jane Smith&#45;&gt;Alice Johnson</title>
<path fill="none" stroke="black" d="M364.37,-45.5C372.3,-45.5 380.39,-45.5 388.42,-45.5"/>
<polygon fill="black" stroke="black" points="388.19,-49 398.19,-45.5 388.19,-42 388.19,-49"/>
</g>
<!-- Bob Brown -->
<g id="node4" class="node">
<title>Bob Brown</title>
<polygon fill="none" stroke="black" points="598.5,-8.75 598.5,-82.25 739.25,-82.25 739.25,-8.75 598.5,-8.75"/>
<text text-anchor="middle" x="659" y="-64.95" font-family="Times,serif" font-size="14.00">4</text>
<polyline fill="none" stroke="black" points="598.5,-57.75 719.5,-57.75"/>
<text text-anchor="middle" x="659" y="-40.45" font-family="Times,serif" font-size="14.00">Bob Brown</text>
<polyline fill="none" stroke="black" points="598.5,-33.25 719.5,-33.25"/>
<text text-anchor="middle" x="659" y="-15.95" font-family="Times,serif" font-size="14.00">Family Fun: $4000</text>
<polyline fill="none" stroke="black" points="719.5,-8.75 719.5,-82.25"/>
<text text-anchor="middle" x="729.38" y="-40.45" font-family="Times,serif" font-size="14.00"> </text>
</g>
<!-- Alice Johnson&#45;&gt;Bob Brown -->
<g id="edge3" class="edge">
<title>Alice Johnson&#45;&gt;Bob Brown</title>
<path fill="none" stroke="black" d="M562.86,-45.5C570.75,-45.5 578.75,-45.5 586.65,-45.5"/>
<polygon fill="black" stroke="black" points="586.59,-49 596.59,-45.5 586.59,-42 586.59,-49"/>
</g>
<!-- Charlie Davis -->
<g id="node5" class="node">
<title>Charlie Davis</title>
<polygon fill="none" stroke="black" points="775.25,-8.75 775.25,-82.25 960.25,-82.25 960.25,-8.75 775.25,-8.75"/>
<text text-anchor="middle" x="857.88" y="-64.95" font-family="Times,serif" font-size="14.00">5</text>
<polyline fill="none" stroke="black" points="775.25,-57.75 940.5,-57.75"/>
<text text-anchor="middle" x="857.88" y="-40.45" font-family="Times,serif" font-size="14.00">Charlie Davis</text>
<polyline fill="none" stroke="black" points="775.25,-33.25 940.5,-33.25"/>
<text text-anchor="middle" x="857.88" y="-15.95" font-family="Times,serif" font-size="14.00">Cultural Immersion: $3000</text>
<polyline fill="none" stroke="black" points="940.5,-8.75 940.5,-82.25"/>
<text text-anchor="middle" x="950.38" y="-40.45" font-family="Times,serif" font-size="14.00"> </text>
</g>
<!-- Bob Brown&#45;&gt;Charlie Davis -->
<g id="edge4" class="edge">
<title>Bob Brown&#45;&gt;Charlie Davis</title>
<path fill="none" stroke="black" d="M739.56,-45.5C747.38,-45.5 755.47,-45.5 763.59,-45.5"/>
<polygon fill="black" stroke="black" points="763.58,-49 773.58,-45.5 763.58,-42 763.58,-49"/>
</g>
<!-- Ella Martinez -->
<g id="node6" class="node">
<title>Ella Martinez</title>
<polygon fill="none" stroke="black" points="996.25,-8.75 996.25,-82.25 1172.25,-82.25 1172.25,-8.75 996.25,-8.75"/>
<text text-anchor="middle" x="1074.38" y="-64.95" font-family="Times,serif" font-size="14.00">6</text>
<polyline fill="none" stroke="black" points="996.25,-57.75 1152.5,-57.75"/>
<text text-anchor="middle" x="1074.38" y="-40.45" font-family="Times,serif" font-size="14.00">Ella Martinez</text>
<polyline fill="none" stroke="black" points="996.25,-33.25 1152.5,-33.25"/>
<text text-anchor="middle" x="1074.38" y="-15.95" font-family="Times,serif" font-size="14.00">Explorer&#39;s Delight: $3500</text>
<polyline fill="none" stroke="black" points="1152.5,-8.75 1152.5,-82.25"/>
<text text-anchor="middle" x="1162.38" y="-40.45" font-family="Times,serif" font-size="14.00"> </text>
</g>
<!-- Charlie Davis&#45;&gt;Ella Martinez -->
<g id="edge5" class="edge">
<title>Charlie Davis&#45;&gt;Ella Martinez</title>
<path fill="none" stroke="black" d="M960.65,-45.5C968.61,-45.5 976.69,-45.5 984.7,-45.5"/>
<polygon fill="black" stroke="black" points="984.45,-49 994.45,-45.5 984.45,-42 984.45,-49"/>
</g>
<!-- Frank Wilson -->
<g id="node7" class="node">
<title>Frank Wilson</title>
<polygon fill="none" stroke="black" points="1208.25,-8.75 1208.25,-82.25 1372.25,-82.25 1372.25,-8.75 1208.25,-8.75"/>
<text text-anchor="middle" x="1280.38" y="-64.95" font-family="Times,serif" font-size="14.00">7</text>
<polyline fill="none" stroke="black" points="1208.25,-57.75 1352.5,-57.75"/>
<text text-anchor="middle" x="1280.38" y="-40.45" font-family="Times,serif" font-size="14.00">Frank Wilson</text>
<polyline fill="none" stroke="black" points="1208.25,-33.25 1352.5,-33.25"/>
<text text-anchor="middle" x="1280.38" y="-15.95" font-family="Times,serif" font-size="14.00">Luxury Escapes: $5500</text>
<polyline fill="none" stroke="black" points="1352.5,-8.75 1352.5,-82.25"/>
<text text-anchor="middle" x="1362.38" y="-40.45" font-family="Times,serif" font-size="14.00"> </text>
</g>
<!-- Ella Martinez&#45;&gt;Frank Wilson -->
<g id="edge6" class="edge">
<title>Ella Martinez&#45;&gt;Frank Wilson</title>
<path fill="none" stroke="black" d="M1172.65,-45.5C1180.5,-45.5 1188.46,-45.5 1196.36,-45.5"/>
<polygon fill="black" stroke="black" points="1196.33,-49 1206.33,-45.5 1196.33,-42 1196.33,-49"/>
</g>
<!-- Grace Lee -->
<g id="node8" class="node">
<title>Grace Lee</title>
<polygon fill="none" stroke="black" points="1408.25,-8.75 1408.25,-82.25 1570.75,-82.25 1570.75,-8.75 1408.25,-8.75"/>
<text text-anchor="middle" x="1479.62" y="-64.95" font-family="Times,serif" font-size="14.00">8</text>
<polyline fill="none" stroke="black" points="1408.25,-57.75 1551,-57.75"/>
<text text-anchor="middle" x="1479.62" y="-40.45" font-family="Times,serif" font-size="14.00">Grace Lee</text>
<polyline fill="none" stroke="black" points="1408.25,-33.25 1551,-33.25"/>
<text text-anchor="middle" x="1479.62" y="-15.95" font-family="Times,serif" font-size="14.00">Budget Explore: $2000</text>
<polyline fill="none" stroke="black" points="1551,-8.75 1551,-82.25"/>
<text text-anchor="middle" x="1560.88" y="-40.45" font-family="Times,serif" font-size="14.00"> </text>
</g>
<!-- Frank Wilson&#45;&gt;Grace Lee -->
<g id="edge7" class="edge">
<title>Frank Wilson&#45;&gt;Grace Lee</title>
<path fill="none" stroke="black" d="M1372.62,-45.5C1380.55,-45.5 1388.64,-45.5 1396.67,-45.5"/>
<polygon fill="black" stroke="black" points="1396.44,-49 1406.44,-45.5 1396.44,-42 1396.44,-49"/>
</g>
<!-- Henry Garcia -->
<g id="node9" class="node">
<title>Henry Garcia</title>
<polygon fill="none" stroke="black" points="1606.75,-8.75 1606.75,-82.25 1747.5,-82.25 1747.5,-8.75 1606.75,-8.75"/>
<text text-anchor="middle" x="1667.25" y="-64.95" font-family="Times,serif" font-size="14.00">9</text>
<polyline fill="none" stroke="black" points="1606.75,-57.75 1727.75,-57.75"/>
<text text-anchor="middle" x="1667.25" y="-40.45" font-family="Times,serif" font-size="14.00">Henry Garcia</text>
<polyline fill="none" stroke="black" points="1606.75,-33.25 1727.75,-33.25"/>
<text text-anchor="middle" x="1667.25" y="-15.95" font-family="Times,serif" font-size="14.00">Family Fun: $4000</text>
<polyline fill="none" stroke="black" points="1727.75,-8.75 1727.75,-82.25"/>
<text text-anchor="middle" x="1737.62" y="-40.45" font-family="Times,serif" font-size="14.00"> </text>
</g>
<!-- Grace Lee&#45;&gt;Henry Garcia -->
<g id="edge8" class="edge">
<title>Grace Lee&#45;&gt;Henry Garcia</title>
<path fill="none" stroke="black" d="M1571.11,-45.5C1579,-45.5 1587,-45.5 1594.9,-45.5"/>
<polygon fill="black" stroke="black" points="1594.84,-49 1604.84,-45.5 1594.84,-42 1594.84,-49"/>
</g>
<!-- Isabella Rodriguez -->
<g id="node10" class="node">
<title>Isabella Rodriguez</title>
<polygon fill="none" stroke="black" points="1783.5,-8.75 1783.5,-82.25 1968.5,-82.25 1968.5,-8.75 1783.5,-8.75"/>
<text text-anchor="middle" x="1866.12" y="-64.95" font-family="Times,serif" font-size="14.00">10</text>
<polyline fill="none" stroke="black" points="1783.5,-57.75 1948.75,-57.75"/>
<text text-anchor="middle" x="1866.12" y="-40.45" font-family="Times,serif" font-size="14.00">Isabella Rodriguez</text>
<polyline fill="none" stroke="black" points="1783.5,-33.25 1948.75,-33.25"/>
<text text-anchor="middle" x="1866.12" y="-15.95" font-family="Times,serif" font-size="14.00">Cultural Immersion: $3000</text>
<polyline fill="none" stroke="black" points="1948.75,-8.75 1948.75,-82.25"/>
<text text-anchor="middle" x="1958.62" y="-40.45" font-family="Times,serif" font-size="14.00"> </text>
</g>
<!-- Henry Garcia&#45;&gt;Isabella Rodriguez -->
<g id="edge9" class="edge">
<title>Henry Garcia&#45;&gt;Isabella Rodriguez</title>
<path fill="none" stroke="black" d="M1747.81,-45.5C1755.63,-45.5 1763.72,-45.5 1771.84,-45.5"/>
<polygon fill="black" stroke="black" points="1771.83,-49 1781.83,-45.5 1771.83,-42 1771.83,-49"/>
</g>
</g>
</svg>
